{"title":"[ReEnc] Dexter S07E10 HDTV x264-ASAP (MKV 175MB)","uid":7883528,"size":181365471,"categoryP":"video","categoryS":"tv_shows","magnet":"?xt=urn:btih:74bfbffcc25b71e5b26273243aac884f07bb33e5&amp;dn=%5BReEnc%5D+Dexter+S07E10+HDTV+x264-ASAP+%28MKV+175MB%29&amp;tr=udp%3A%2F%2Ftracker.openbittorrent.com%3A80&amp;tr=udp%3A%2F%2Fopen.demonii.com%3A1337&amp;tr=udp%3A%2F%2Ftracker.coppersurfer.tk%3A6969&amp;tr=udp%3A%2F%2Fexodus.desync.com%3A6969","seeders":3,"leechers":0,"uploader":"Mr.KooZ","files":1,"time":1354553940,"description":"General\n\nFormat                                   : Matroska\nFormat version                           : Version 2\nFile size                                : 173 MiB\nDuration                                 : 53mn 55s\nOverall bit rate mode                    : Variable\nOverall bit rate                         : 448 Kbps\nMovie name                               : Dexter S07E10 HDTV x264-ASAP\nEncoded date                             : UTC 2012-12-03 15:48:56\nWriting application                      : mkvmerge v5.5.0 ('Healer') built on Apr  6 2012 21:43:24\nWriting library                          : libebml v1.2.3 + libmatroska v1.3.0\n\n\nVideo\n\nID                                       : 1\nFormat                                   : AVC\nFormat/Info                              : Advanced Video Codec\nFormat profile                           : &lt;a class=&quot;__cf_email__&quot; href=&quot;/cdn-cgi/l/email-protection&quot; data-cfemail=&quot;357d5c525d7579011b05&quot;&gt;[email&amp;#160;protected]&lt;/a&gt;&lt;script cf-hash='f9e31' type=&quot;text/javascript&quot;&gt;\n/* &lt;![CDATA[ */!function(){try{var t=&quot;currentScript&quot;in document?document.currentScript:function(){for(var t=document.getElementsByTagName(&quot;script&quot;),e=t.length;e--;)if(t[e].getAttribute(&quot;cf-hash&quot;))return t[e]}();if(t&amp;&amp;t.previousSibling){var e,r,n,i,c=t.previousSibling,a=c.getAttribute(&quot;data-cfemail&quot;);if(a){for(e=&quot;&quot;,r=parseInt(a.substr(0,2),16),n=2;a.length-n;n+=2)i=parseInt(a.substr(n,2),16)^r,e+=String.fromCharCode(i);e=document.createTextNode(e),c.parentNode.replaceChild(e,c)}}}catch(u){}}();/* ]]&gt; */&lt;/script&gt;\nFormat settings, CABAC                   : Yes\nFormat settings, ReFrames                : 3 frames\nCodec ID                                 : V_MPEG4/ISO/AVC\nDuration                                 : 53mn 55s\nBit rate mode                            : Variable\nBit rate                                 : 389 Kbps\nMaximum bit rate                         : 25.0 Mbps\nWidth                                    : 720 pixels\nHeight                                   : 402 pixels\nDisplay aspect ratio                     : 16:9\nFrame rate mode                          : Constant\nFrame rate                               : 23.976 fps\nColor space                              : YUV\nChroma subsampling                       : 4:2:0\nBit depth                                : 8 bits\nScan type                                : Progressive\nBits/(Pixel*Frame)                       : 0.056\nStream size                              : 145 MiB (84%)\nWriting library                          : x264 core 124 r2197 69a0443\nDefault                                  : Yes\nForced                                   : No\n\n\nAudio\n\nID                                       : 2\nFormat                                   : Vorbis\nFormat settings, Floor                   : 1\nCodec ID                                 : A_VORBIS\nDuration                                 : 53mn 55s\nBit rate mode                            : Variable\nBit rate                                 : 64.0 Kbps\nChannel(s)                               : 2 channels\nSampling rate                            : 48.0 KHz\nCompression mode                         : Lossy\nStream size                              : 24.7 MiB (14%)\nWriting library                          : aoTuV 20110424 (UTC 2011-04-24)\nLanguage                                 : English\nDefault                                  : Yes\nForced                                   : No\n","torrent":{"xt":"urn:btih:74bfbffcc25b71e5b26273243aac884f07bb33e5","amp;dn":"%5BReEnc%5D+Dexter+S07E10+HDTV+x264-ASAP+%28MKV+175MB%29","amp;tr":["udp%3A%2F%2Ftracker.openbittorrent.com%3A80","udp%3A%2F%2Fopen.demonii.com%3A1337","udp%3A%2F%2Ftracker.coppersurfer.tk%3A6969","udp%3A%2F%2Fexodus.desync.com%3A6969"],"infoHash":"74bfbffcc25b71e5b26273243aac884f07bb33e5","infoHashBuffer":{"type":"Buffer","data":[116,191,191,252,194,91,113,229,178,98,115,36,58,172,136,79,7,187,51,229]},"announce":[],"urlList":[]}}